<?xml version="1.0" encoding="UTF-8" standalone="no"?>
<!-- Created with Inkscape (http://www.inkscape.org/) -->

<svg
   xmlns:dc="http://purl.org/dc/elements/1.1/"
   xmlns:cc="http://creativecommons.org/ns#"
   xmlns:rdf="http://www.w3.org/1999/02/22-rdf-syntax-ns#"
   xmlns:svg="http://www.w3.org/2000/svg"
   xmlns="http://www.w3.org/2000/svg"
   xmlns:sodipodi="http://sodipodi.sourceforge.net/DTD/sodipodi-0.dtd"
   xmlns:inkscape="http://www.inkscape.org/namespaces/inkscape"
   width="10.865715mm"
   height="10.004183mm"
   viewBox="0 0 10.865715 10.004183"
   version="1.1"
   id="svg4544"
   sodipodi:docname="logomark_in_circular_blue.svg"
   inkscape:version="0.92.2 (5c3e80d, 2017-08-06)">
  <defs
     id="defs4538" />
  <sodipodi:namedview
     id="base"
     pagecolor="#ffffff"
     bordercolor="#666666"
     borderopacity="1.0"
     inkscape:pageopacity="0.0"
     inkscape:pageshadow="2"
     inkscape:zoom="7.9195959"
     inkscape:cx="17.288573"
     inkscape:cy="44.812127"
     inkscape:document-units="mm"
     inkscape:current-layer="layer1"
     showgrid="false"
     inkscape:pagecheckerboard="true"
     inkscape:window-width="2477"
     inkscape:window-height="1557"
     inkscape:window-x="533"
     inkscape:window-y="43"
     inkscape:window-maximized="0"
     fit-margin-top="0"
     fit-margin-left="0"
     fit-margin-right="0"
     fit-margin-bottom="0" />
  <metadata
     id="metadata4541">
    <rdf:RDF>
      <cc:Work
         rdf:about="">
        <dc:format>image/svg+xml</dc:format>
        <dc:type
           rdf:resource="http://purl.org/dc/dcmitype/StillImage" />
        <dc:title></dc:title>
      </cc:Work>
    </rdf:RDF>
  </metadata>
  <g
     inkscape:label="Layer 1"
     inkscape:groupmode="layer"
     id="layer1"
     transform="translate(-52.788044,-84.032691)">
    <ellipse
       style="opacity:1;fill:#3255a4;fill-opacity:1;stroke:#3255a4;stroke-width:0.03922003;stroke-miterlimit:4;stroke-dasharray:none;stroke-opacity:1"
       id="path5615"
       cx="58.220901"
       cy="89.034782"
       rx="5.4132476"
       ry="4.9824815" />
    <g
       id="g1371"
       transform="matrix(1.4880454,0,0,1,-67.591207,-4.3908995)">
      <path
         inkscape:connector-curvature="0"
         style="fill:none;fill-opacity:1;stroke:#ffffff;stroke-width:0.30000001;stroke-linecap:round;stroke-linejoin:round;stroke-miterlimit:4;stroke-dasharray:none;stroke-dashoffset:0;stroke-opacity:1"
         d="M 84.458931,96.449438 C 84.128053,96.361178 83.827,96.272918 83.827,96.184658 c 0,-0.08826 0.301053,-0.17652 0.631931,-0.26478 0.330878,-0.08826 0.631931,-0.17652 0.631931,-0.26478 0,-0.08826 -0.301053,-0.17652 -0.631931,-0.26478 -0.330878,-0.08826 -0.631931,-0.17652 -0.631931,-0.26478 0,-0.08826 0.301053,-0.17652 0.631931,-0.26478 0.330878,-0.08826 0.631931,-0.17652 0.631931,-0.26478 0,-0.08826 -0.301053,-0.17652 -0.631931,-0.26478 -0.330878,-0.08826 -0.631931,-0.17652 -0.631931,-0.26478 0,-0.08826 0.301053,-0.17652 0.631931,-0.26478 0.330878,-0.08826 0.631931,-0.17652 0.631931,-0.26478 0,-0.08826 -0.301053,-0.17652 -0.631931,-0.26478 -0.330878,-0.08826 -0.631931,-0.17652 -0.631931,-0.26478 0,-0.08826 0.301053,-0.17652 0.631931,-0.26478 0.330878,-0.08826 0.631931,-0.17652 0.631931,-0.26478 0,-0.08826 -0.301053,-0.176521 -0.631931,-0.264781 -0.330878,-0.08826 -0.631931,-0.17652 -0.631931,-0.26478 0,-0.08826 0.301053,-0.17652 0.631931,-0.26478 0.330878,-0.08826 0.631931,-0.17652 0.631931,-0.26478 0,-0.08826 -0.301053,-0.17652 -0.631931,-0.26478 -0.330878,-0.08826 -0.631931,-0.17652 -0.631931,-0.26478 0,-0.08826 0.301053,-0.17652 0.631931,-0.26478 0.330878,-0.08826 0.631931,-0.17652 0.631931,-0.26478 0,-0.08826 -0.301053,-0.17652 -0.631931,-0.26478"
         title="sin(x)"
         id="path1115-2" />
      <g
         id="g1352">
        <path
           id="path1115"
           title="sin(x)"
           d="m 84.45996,96.743465 c -0.330878,-0.08826 -0.631931,-0.17652 -0.631931,-0.26478 0,-0.08826 0.301053,-0.17652 0.631931,-0.26478 0.330878,-0.08826 0.631931,-0.17652 0.631931,-0.26478 0,-0.08826 -0.301053,-0.17652 -0.631931,-0.26478 -0.330878,-0.08826 -0.631931,-0.17652 -0.631931,-0.26478 0,-0.08826 0.301053,-0.17652 0.631931,-0.26478 0.330878,-0.08826 0.631931,-0.17652 0.631931,-0.26478 0,-0.08826 -0.301053,-0.17652 -0.631931,-0.26478 -0.330878,-0.08826 -0.631931,-0.17652 -0.631931,-0.26478 0,-0.08826 0.301053,-0.17652 0.631931,-0.26478 0.330878,-0.08826 0.631931,-0.17652 0.631931,-0.26478 0,-0.08826 -0.301053,-0.17652 -0.631931,-0.26478 -0.330878,-0.08826 -0.631931,-0.17652 -0.631931,-0.26478 0,-0.08826 0.301053,-0.17652 0.631931,-0.26478 0.330878,-0.08826 0.631931,-0.17652 0.631931,-0.26478 0,-0.08826 -0.301053,-0.176521 -0.631931,-0.264781 -0.330878,-0.08826 -0.631931,-0.17652 -0.631931,-0.26478 0,-0.08826 0.301053,-0.17652 0.631931,-0.26478 0.330878,-0.08826 0.631931,-0.17652 0.631931,-0.26478 0,-0.08826 -0.301053,-0.17652 -0.631931,-0.26478 -0.330878,-0.08826 -0.631931,-0.17652 -0.631931,-0.26478 0,-0.08826 0.301053,-0.17652 0.631931,-0.26478 0.330878,-0.08826 0.631931,-0.17652 0.631931,-0.26478 0,-0.08826 -0.301053,-0.17652 -0.631931,-0.26478"
           style="fill:none;fill-opacity:1;stroke:#ffffff;stroke-width:0.30000001;stroke-linecap:round;stroke-linejoin:round;stroke-miterlimit:4;stroke-dasharray:none;stroke-dashoffset:0;stroke-opacity:1"
           inkscape:connector-curvature="0" />
        <rect
           style="fill:#ffffff;fill-opacity:1;stroke:none;stroke-width:0.30000001;stroke-linecap:round;stroke-linejoin:round;stroke-miterlimit:4;stroke-dasharray:none;stroke-dashoffset:0;stroke-opacity:1"
           id="rect1145"
           width="0.20971069"
           height="0.30754444"
           x="85.030998"
           y="91.41114" />
        <rect
           style="fill:#ffffff;fill-opacity:1;stroke:none;stroke-width:0.30000001;stroke-linecap:round;stroke-linejoin:round;stroke-miterlimit:4;stroke-dasharray:none;stroke-dashoffset:0;stroke-opacity:1"
           id="rect1145-4"
           width="0.20971069"
           height="0.30754444"
           x="85.030998"
           y="92.481361" />
        <rect
           style="fill:#ffffff;fill-opacity:1;stroke:none;stroke-width:0.30000001;stroke-linecap:round;stroke-linejoin:round;stroke-miterlimit:4;stroke-dasharray:none;stroke-dashoffset:0;stroke-opacity:1"
           id="rect1145-4-1"
           width="0.20971069"
           height="0.30754444"
           x="85.030998"
           y="93.53054" />
        <rect
           style="fill:#ffffff;fill-opacity:1;stroke:none;stroke-width:0.30000001;stroke-linecap:round;stroke-linejoin:round;stroke-miterlimit:4;stroke-dasharray:none;stroke-dashoffset:0;stroke-opacity:1"
           id="rect1145-4-1-5"
           width="0.20971069"
           height="0.30754444"
           x="85.030998"
           y="94.583641" />
        <rect
           style="fill:#ffffff;fill-opacity:1;stroke:none;stroke-width:0.30000001;stroke-linecap:round;stroke-linejoin:round;stroke-miterlimit:4;stroke-dasharray:none;stroke-dashoffset:0;stroke-opacity:1"
           id="rect1145-4-1-5-2"
           width="0.20971069"
           height="0.30754444"
           x="85.031036"
           y="95.651276" />
        <rect
           style="fill:#ffffff;fill-opacity:1;stroke:none;stroke-width:0.30000001;stroke-linecap:round;stroke-linejoin:round;stroke-miterlimit:4;stroke-dasharray:none;stroke-dashoffset:0;stroke-opacity:1"
           id="rect1145-4-1-5-2-1"
           width="0.20971069"
           height="0.30754444"
           x="84.397949"
           y="96.452454" />
        <rect
           style="fill:#ffffff;fill-opacity:1;stroke:none;stroke-width:0.30000001;stroke-linecap:round;stroke-linejoin:round;stroke-miterlimit:4;stroke-dasharray:none;stroke-dashoffset:0;stroke-opacity:1"
           id="rect1145-4-1-5-2-1-8"
           width="0.20971069"
           height="0.30754444"
           x="84.309998"
           y="90.079269" />
        <rect
           style="fill:#ffffff;fill-opacity:1;stroke:none;stroke-width:0.30000001;stroke-linecap:round;stroke-linejoin:round;stroke-miterlimit:4;stroke-dasharray:none;stroke-dashoffset:0;stroke-opacity:1"
           id="rect1145-4-1-5-2-1-8-7"
           width="0.20971069"
           height="0.30754444"
           x="85.030998"
           y="90.358574" />
        <rect
           style="fill:#ffffff;fill-opacity:1;stroke:none;stroke-width:0.30000001;stroke-linecap:round;stroke-linejoin:round;stroke-miterlimit:4;stroke-dasharray:none;stroke-dashoffset:0;stroke-opacity:1"
           id="rect1145-4-1-5-2-1-8-7-8"
           width="0.20971069"
           height="0.30754444"
           x="83.67775"
           y="90.874519" />
        <rect
           style="fill:#ffffff;fill-opacity:1;stroke:none;stroke-width:0.30000001;stroke-linecap:round;stroke-linejoin:round;stroke-miterlimit:4;stroke-dasharray:none;stroke-dashoffset:0;stroke-opacity:1"
           id="rect1145-4-1-5-2-1-8-7-8-2"
           width="0.20971069"
           height="0.30754444"
           x="83.678001"
           y="91.93367" />
        <rect
           style="fill:#ffffff;fill-opacity:1;stroke:none;stroke-width:0.30000001;stroke-linecap:round;stroke-linejoin:round;stroke-miterlimit:4;stroke-dasharray:none;stroke-dashoffset:0;stroke-opacity:1"
           id="rect1145-4-1-5-2-1-8-7-8-2-7"
           width="0.20971069"
           height="0.30754444"
           x="83.678001"
           y="92.997749" />
        <rect
           style="fill:#ffffff;fill-opacity:1;stroke:none;stroke-width:0.30000001;stroke-linecap:round;stroke-linejoin:round;stroke-miterlimit:4;stroke-dasharray:none;stroke-dashoffset:0;stroke-opacity:1"
           id="rect1145-4-1-5-2-1-8-7-8-2-7-6"
           width="0.20971069"
           height="0.30754444"
           x="83.678146"
           y="94.063774" />
        <rect
           style="fill:#ffffff;fill-opacity:1;stroke:none;stroke-width:0.30000001;stroke-linecap:round;stroke-linejoin:round;stroke-miterlimit:4;stroke-dasharray:none;stroke-dashoffset:0;stroke-opacity:1"
           id="rect1145-4-1-5-2-1-8-7-8-2-7-8"
           width="0.20971069"
           height="0.30754444"
           x="83.678146"
           y="95.121078" />
        <rect
           style="fill:#ffffff;fill-opacity:1;stroke:none;stroke-width:0.30000001;stroke-linecap:round;stroke-linejoin:round;stroke-miterlimit:4;stroke-dasharray:none;stroke-dashoffset:0;stroke-opacity:1"
           id="rect1145-4-1-5-2-1-8-7-8-2-7-8-1"
           width="0.20971069"
           height="0.30754444"
           x="83.678001"
           y="96.174248" />
      </g>
    </g>
    <text
       xml:space="preserve"
       style="font-style:normal;font-variant:normal;font-weight:normal;font-stretch:normal;font-size:10.58333302px;line-height:1.25;font-family:Carlito;-inkscape-font-specification:Carlito;letter-spacing:0px;word-spacing:0px;fill:#ffffff;fill-opacity:1;stroke:none;stroke-width:0.26458332"
       x="61.835484"
       y="86.34626"
       id="text3898"><tspan
         sodipodi:role="line"
         id="tspan3896"
         x="61.835484"
         y="95.606674"
         style="font-style:normal;font-variant:normal;font-weight:normal;font-stretch:normal;font-family:Carlito;-inkscape-font-specification:Carlito;fill:#ffffff;stroke-width:0.26458332" /></text>
    <text
       xml:space="preserve"
       style="font-style:normal;font-variant:normal;font-weight:normal;font-stretch:normal;font-size:10.58333302px;line-height:1.25;font-family:Carlito;-inkscape-font-specification:Carlito;letter-spacing:0px;word-spacing:0px;fill:#ffffff;fill-opacity:0;stroke:#ffffff;stroke-width:0.26458332"
       x="63.262035"
       y="90.204956"
       id="text3902"><tspan
         sodipodi:role="line"
         id="tspan3900"
         x="63.262035"
         y="99.46537"
         style="font-style:normal;font-variant:normal;font-weight:normal;font-stretch:normal;font-family:Carlito;-inkscape-font-specification:Carlito;fill:#ffffff;fill-opacity:0;stroke:#ffffff;stroke-width:0.26458332" /></text>
    <text
       xml:space="preserve"
       style="font-style:normal;font-variant:normal;font-weight:normal;font-stretch:normal;font-size:10.58333302px;line-height:1.25;font-family:Carlito;-inkscape-font-specification:Carlito;letter-spacing:0px;word-spacing:0px;fill:#ffffff;fill-opacity:1;stroke:none;stroke-width:0.26458332"
       x="64.127327"
       y="89.994492"
       id="text4715"><tspan
         sodipodi:role="line"
         id="tspan4713"
         x="64.127327"
         y="99.254906"
         style="font-style:normal;font-variant:normal;font-weight:normal;font-stretch:normal;font-family:Carlito;-inkscape-font-specification:Carlito;fill:#ffffff;stroke-width:0.26458332" /></text>
    <rect
       style="opacity:1;fill:none;fill-opacity:1;stroke:#7d2d69;stroke-width:0.26499999;stroke-miterlimit:4;stroke-dasharray:none;stroke-opacity:0.00438597"
       id="rect5327"
       width="41.955357"
       height="12.095239"
       x="43.750744"
       y="83.065468" />
  </g>
</svg>
